<svg width="31" height="31" viewBox="0 0 31 31" fill="none" xmlns="http://www.w3.org/2000/svg">
<path d="M10.6303 0.0915318C8.52241 0.412561 6.54173 1.24239 4.88207 2.49017C4.25212 2.96868 2.97406 4.24674 2.5016 4.87668C1.23566 6.54846 0.393715 8.57155 0.0908573 10.6613C-0.0302858 11.5153 -0.0302858 13.3749 0.0908573 14.2047C0.526972 17.1182 2.2472 20.3769 5.27578 24.0112C7.10504 26.21 9.58242 28.6692 11.7206 30.4197L12.3869 30.9648L12.405 29.3658L12.4232 27.7667L11.8599 27.2579C10.9634 26.4462 8.56481 24.0173 7.85613 23.2117C5.01532 19.9529 3.25875 16.997 2.67726 14.5015C2.35018 13.1023 2.38652 11.4184 2.78023 9.87989C3.21029 8.196 4.08858 6.68777 5.39087 5.38548C7.31098 3.46537 9.68539 2.47199 12.3566 2.47199C14.5856 2.47199 16.5603 3.12617 18.3471 4.45874C19.3587 5.20983 20.4913 6.51817 21.1092 7.65692C21.6301 8.60789 22.0965 10.001 22.2055 10.9278C22.2237 11.1277 22.2661 11.3336 22.2964 11.3942C22.3509 11.4972 24.6223 13.5748 24.7192 13.6111C24.8101 13.6474 24.7859 11.376 24.6829 10.6613C24.38 8.57155 23.5381 6.54846 22.2722 4.87668C21.7997 4.24674 20.5216 2.96868 19.8917 2.49622C18.2199 1.23028 16.1968 0.388332 14.1071 0.0854759C13.3015 -0.0296097 11.3935 -0.0296097 10.6303 0.0915318Z" fill="#B064CA"/>
<path d="M11.696 7.26174C9.61239 7.55249 7.93456 9.0486 7.38336 11.108C7.20164 11.7925 7.20164 12.9676 7.38336 13.652C7.88004 15.5055 9.26107 16.8866 11.1146 17.3832C11.799 17.565 12.9741 17.565 13.6586 17.3832C15.5121 16.8866 16.8931 15.5055 17.3898 13.652C17.5715 12.9676 17.5715 11.7925 17.3898 11.108C16.7962 8.88506 14.9366 7.36471 12.6531 7.23751C12.3381 7.2254 11.908 7.23146 11.696 7.26174ZM12.8045 9.74518C14.2219 9.97535 15.2455 11.3624 15.0275 12.7616C14.8034 14.2093 13.4223 15.239 12.005 15.021C10.848 14.8392 9.92736 13.9186 9.74565 12.7616C9.50942 11.2292 10.7269 9.78152 12.326 9.69066C12.3926 9.69066 12.6046 9.70883 12.8045 9.74518Z" fill="#B064CA"/>
<path d="M19.0796 20.2279C16.8993 22.2137 15.113 23.8618 15.1028 23.8874C15.0823 23.9386 16.4182 25.4178 16.4847 25.4178C16.5103 25.4178 16.6434 25.3103 16.7816 25.1823L17.0375 24.9418V26.7127C17.0375 27.7977 17.0579 28.5911 17.0938 28.7548C17.2985 29.7427 18.1635 30.6384 19.1411 30.8687C19.6273 30.9813 26.542 30.9813 26.9822 30.8687C27.9393 30.6179 28.7377 29.8194 28.9885 28.8623C29.0499 28.632 29.0653 28.197 29.0653 26.7587V24.9469L29.3314 25.1823C29.4799 25.3103 29.6181 25.4178 29.6385 25.4178C29.6897 25.4178 30.9795 23.9898 31 23.9181C31.0102 23.8669 23.4301 16.8908 23.1333 16.6758C23.0565 16.6195 22.5805 17.0392 19.0796 20.2279ZM25.068 21.2874L27.0231 23.0685L27.0078 25.689C26.9924 28.6013 26.9975 28.5296 26.6444 28.7446C26.4857 28.8419 26.3629 28.847 23.0514 28.847C19.7399 28.847 19.617 28.8419 19.4584 28.7446C19.1308 28.545 19.1359 28.6167 19.1359 25.6839V23.0327L21.086 21.2515C22.1557 20.2739 23.0514 19.4806 23.077 19.4909C23.0974 19.5011 23.9931 20.3098 25.068 21.2874Z" fill="#4E4D69"/>
<path d="M21.542 25.2673V26.8027H23.1031H24.6641V25.2673V23.7318H23.1031H21.542V25.2673Z" fill="#4E4D69"/>
</svg>
