<svg width="31" height="24" viewBox="0 0 31 24" fill="none" xmlns="http://www.w3.org/2000/svg">
<path d="M3.29365 0.106976C2.11609 0.451627 1.18553 1.39942 0.881085 2.56549C0.812154 2.82398 0.794922 3.27203 0.794922 4.62191L0.800666 6.34517L7.17098 11.0841C10.6864 13.6977 13.7251 15.915 13.9434 16.0299C14.8969 16.5239 16.0917 16.5239 17.0567 16.0299C17.2923 15.9093 20.1356 13.8299 23.8292 11.0841L30.1995 6.34517L30.2052 4.62766C30.2052 2.71484 30.1822 2.52528 29.8204 1.813C29.5446 1.26156 28.9415 0.658418 28.39 0.382696C27.5629 -0.0308857 28.5911 -0.00216484 15.4656 0.00357819C4.37356 0.00357819 3.61532 0.0150681 3.29365 0.106976ZM27.247 2.44486C27.7812 2.73207 27.8673 2.96184 27.896 4.13366L27.919 5.08145L21.968 9.50448C17.4818 12.8419 15.9596 13.9447 15.7643 14.0022C15.546 14.0654 15.4541 14.0654 15.2416 14.0022C15.0463 13.9447 13.5011 12.8304 9.0321 9.50448L3.08111 5.08145L3.10409 4.13366C3.12132 3.35819 3.1443 3.1514 3.23046 2.98482C3.42576 2.61144 3.66128 2.43337 4.06911 2.34721C4.17825 2.32423 9.38824 2.31275 15.6437 2.31849L27.0172 2.32423L27.247 2.44486Z" fill="#B064CA"/>
<path d="M2.38486 15.7556C2.38486 21.7704 2.36949 21.4497 2.72819 22.1858C2.96904 22.6748 3.5071 23.2321 3.99903 23.4897C4.72669 23.8736 3.81456 23.8473 15.5032 23.8473C27.1765 23.8473 26.2644 23.8736 27.0023 23.495C27.4942 23.2426 28.0323 22.6906 28.2782 22.1858C28.6421 21.4497 28.6216 21.7757 28.6113 15.7556L28.5959 10.3348L27.5967 11.0919L26.5974 11.8543L26.5718 16.3918C26.5462 20.6979 26.5411 20.9397 26.4488 21.1132C26.3156 21.3709 26.2182 21.476 25.9825 21.6075L25.7776 21.7179H15.5032H5.22888L5.02391 21.6075C4.78818 21.476 4.69082 21.3709 4.55759 21.1132C4.46535 20.9397 4.46023 20.7084 4.44485 16.397L4.42948 11.8648L3.47635 11.1393C2.94854 10.7397 2.49247 10.3927 2.45148 10.3716C2.39511 10.3348 2.38486 11.2549 2.38486 15.7556Z" fill="#4E4D69"/>
</svg>
