<svg width="40" height="40" viewBox="0 0 40 40" fill="none" xmlns="http://www.w3.org/2000/svg">
<path d="M39.428 19.6172C39.428 30.2348 30.8208 38.8421 20.2032 38.8421C9.58556 38.8421 0.978282 30.2348 0.978282 19.6172C0.978282 8.99962 9.58556 0.392345 20.2032 0.392345C30.8208 0.392345 39.428 8.99962 39.428 19.6172Z" stroke="#4E4C68" stroke-width="0.784689"/>
<path d="M21.5625 14.6277H23.2303C23.3837 14.6277 23.5083 14.5024 23.5083 14.348V12.6703C23.5083 12.5159 23.3837 12.3906 23.2303 12.3906H21.5625C19.877 12.3906 18.505 13.7703 18.505 15.4666V17.424H16.5592C16.4058 17.424 16.2812 17.5493 16.2812 17.7036V19.3814C16.2812 19.5358 16.4058 19.661 16.5592 19.661H18.505V25.5333C18.505 25.6877 18.6295 25.8129 18.7829 25.8129H20.4507C20.6041 25.8129 20.7287 25.6877 20.7287 25.5333V19.661H22.6744C22.7939 19.661 22.9001 19.5839 22.9385 19.4698L23.4944 17.792C23.5227 17.707 23.5083 17.613 23.456 17.5398C23.4032 17.4671 23.3198 17.424 23.2303 17.424H20.7287V15.4666C20.7287 15.0041 21.1028 14.6277 21.5625 14.6277Z" fill="#4E4C68"/>
</svg>
