<svg width="40" height="40" viewBox="0 0 40 40" fill="none" xmlns="http://www.w3.org/2000/svg">
<path d="M39.6077 19.6172C39.6077 30.2348 31.0005 38.8421 20.3829 38.8421C9.76524 38.8421 1.15797 30.2348 1.15797 19.6172C1.15797 8.99962 9.76524 0.392345 20.3829 0.392345C31.0005 0.392345 39.6077 8.99962 39.6077 19.6172Z" stroke="#4E4C68" stroke-width="0.784689"/>
<path d="M23.0517 14.4551H17.3056C16.5617 14.4558 15.8485 14.7516 15.3225 15.2776C14.7965 15.8036 14.5007 16.5168 14.5 17.2607V23.0068C14.5007 23.7507 14.7965 24.4639 15.3225 24.9899C15.8485 25.5159 16.5617 25.8117 17.3056 25.8124H23.0517C23.7955 25.8114 24.5086 25.5155 25.0345 24.9896C25.5604 24.4636 25.8564 23.7506 25.8573 23.0068V17.2607C25.8564 16.5169 25.5604 15.8039 25.0345 15.2779C24.5086 14.752 23.7955 14.4561 23.0517 14.4551ZM22.9932 18.0397C22.8505 18.0396 22.7111 17.9971 22.5925 17.9177C22.474 17.8383 22.3817 17.7255 22.3273 17.5936C22.2728 17.4617 22.2587 17.3167 22.2867 17.1768C22.3147 17.0369 22.3836 16.9084 22.4846 16.8077C22.5856 16.7069 22.7142 16.6384 22.8542 16.6107C22.9942 16.583 23.1392 16.5975 23.2709 16.6523C23.4027 16.707 23.5152 16.7996 23.5943 16.9183C23.6735 17.0371 23.7156 17.1766 23.7154 17.3193C23.7153 17.414 23.6965 17.5078 23.6602 17.5952C23.6238 17.6827 23.5706 17.7622 23.5035 17.8291C23.4364 17.896 23.3569 17.949 23.2693 17.9852C23.1817 18.0213 23.0879 18.0399 22.9932 18.0397ZM20.1787 17.4293C20.7136 17.4293 21.2364 17.5879 21.6812 17.8851C22.1259 18.1822 22.4726 18.6046 22.6773 19.0988C22.882 19.593 22.9355 20.1367 22.8312 20.6614C22.7268 21.186 22.4692 21.6679 22.091 22.0461C21.7128 22.4243 21.2309 22.6819 20.7063 22.7862C20.1817 22.8906 19.6379 22.837 19.1437 22.6323C18.6495 22.4277 18.2272 22.081 17.93 21.6363C17.6328 21.1915 17.4742 20.6686 17.4742 20.1337C17.4752 19.4168 17.7605 18.7295 18.2675 18.2225C18.7744 17.7156 19.4617 17.4303 20.1787 17.4293Z" fill="#4E4C68"/>
<path d="M20.182 21.7604C20.5038 21.7604 20.8184 21.665 21.0861 21.4862C21.3537 21.3074 21.5622 21.0532 21.6854 20.7559C21.8086 20.4585 21.8408 20.1313 21.778 19.8157C21.7152 19.5 21.5602 19.2101 21.3327 18.9825C21.1051 18.7549 20.8151 18.5999 20.4995 18.5371C20.1838 18.4743 19.8566 18.5066 19.5592 18.6297C19.2619 18.7529 19.0077 18.9615 18.8289 19.2291C18.6501 19.4967 18.5547 19.8113 18.5547 20.1332C18.5552 20.5646 18.7268 20.9782 19.0318 21.2833C19.3369 21.5884 19.7505 21.76 20.182 21.7604Z" fill="#4E4C68"/>
</svg>
