<svg width="19" height="16" viewBox="0 0 19 16" fill="none" xmlns="http://www.w3.org/2000/svg">
<path d="M9.01966 0.943224C9.60573 1.24533 9.86554 1.92807 9.62386 2.52623C9.5574 2.67729 8.82027 3.45671 7.33997 4.937L5.15276 7.13026H15.1123H18.0844L18.3442 7.28131C18.7248 7.50486 18.9121 7.8553 18.9121 8.33866C18.9121 8.82203 18.7248 9.17246 18.3442 9.39602L18.0844 9.54707H15.1123H5.15276L7.33997 11.7343C8.82027 13.2206 9.5574 14 9.62386 14.1511C9.82929 14.6526 9.66011 15.2568 9.21904 15.6133C9.04383 15.7462 8.9109 15.7945 8.66318 15.8187C7.95626 15.8731 8.20398 16.0725 4.56668 12.4895C2.73595 10.689 1.17711 9.106 1.09856 8.96703C0.893133 8.62264 0.893133 8.05469 1.09856 7.71029C1.27982 7.39611 7.775 0.99156 7.99251 0.906972C8.23419 0.816341 8.81423 0.834468 9.01966 0.943224Z" fill="#B8AEDA"/>
</svg>
