<svg width="40" height="40" viewBox="0 0 40 40" fill="none" xmlns="http://www.w3.org/2000/svg">
<path d="M38.8421 19.6172C38.8421 30.2348 30.2348 38.8421 19.6172 38.8421C8.99962 38.8421 0.392345 30.2348 0.392345 19.6172C0.392345 8.99962 8.99962 0.392345 19.6172 0.392345C30.2348 0.392345 38.8421 8.99962 38.8421 19.6172Z" stroke="#4E4C68" stroke-width="0.784689"/>
<path d="M14.2987 15.4881C15.1541 15.4881 15.8475 14.7947 15.8475 13.9394C15.8475 13.084 15.1541 12.3906 14.2987 12.3906C13.4434 12.3906 12.75 13.084 12.75 13.9394C12.75 14.7947 13.4434 15.4881 14.2987 15.4881Z" fill="#4E4C68"/>
<path d="M15.5893 16.5215H13.0081C12.8656 16.5215 12.75 16.6516 12.75 16.8119V25.5235C12.75 25.6838 12.8656 25.8139 13.0081 25.8139H15.5893C15.7318 25.8139 15.8475 25.6838 15.8475 25.5235V16.8119C15.8475 16.6516 15.7318 16.5215 15.5893 16.5215Z" fill="#4E4C68"/>
<path d="M24.0788 16.6915C22.8376 16.2914 21.2852 16.6429 20.3543 17.2731C20.3223 17.1556 20.2085 17.0681 20.0732 17.0681H17.1693C17.009 17.0681 16.8789 17.1906 16.8789 17.3414V25.5406C16.8789 25.6914 17.009 25.8139 17.1693 25.8139H20.0732C20.2335 25.8139 20.3635 25.6914 20.3635 25.5406V19.6481C20.8328 19.2677 21.4374 19.1463 21.9322 19.3442C22.4119 19.535 22.6866 20.0007 22.6866 20.6211V25.5406C22.6866 25.6914 22.8167 25.8139 22.977 25.8139H25.8809C26.0412 25.8139 26.1713 25.6914 26.1713 25.5406V20.0706C26.1382 17.8246 25.0155 16.9932 24.0788 16.6915Z" fill="#4E4C68"/>
</svg>
