<svg width="39" height="36" viewBox="0 0 39 36" fill="none" xmlns="http://www.w3.org/2000/svg">
<path d="M19.4683 32.0875C19.9728 32.0875 20.3839 31.6764 20.3839 31.1719C20.3839 30.6611 19.9728 30.25 19.4683 30.25C18.9575 30.25 18.5464 30.6611 18.5464 31.1719C18.5464 31.6764 18.9575 32.0875 19.4683 32.0875Z" fill="#4E4D69"/>
<path d="M35.8505 0H3.08014C1.38155 0 0 1.38155 0 3.08014V26.0358C0 27.7344 1.38155 29.1153 3.08014 29.1153H13.6722V33.2194H12.936C12.4196 33.2194 12.0017 33.638 12.0017 34.1538C12.0017 34.6695 12.4196 35.0881 12.936 35.0881H14.5766C14.5866 35.0887 14.5966 35.0912 14.6065 35.0912C14.6165 35.0912 14.6265 35.0887 14.6364 35.0881H24.2929C24.3029 35.0887 24.3129 35.0912 24.3228 35.0912C24.3328 35.0912 24.3428 35.0887 24.3527 35.0881H25.9934C26.5091 35.0881 26.9277 34.6695 26.9277 34.1538C26.9277 33.638 26.5091 33.2194 25.9934 33.2194H25.2578V29.1153H35.8505C37.5491 29.1153 38.93 27.7337 38.93 26.0358V3.08014C38.93 1.38217 37.5484 0 35.8505 0ZM23.3891 33.2201H15.5409V29.1159H23.3891V33.2201ZM36.5 25.9277C36.5 26 36.5 26.5 35.8505 26.5H3.08014C2.5 26.5 2.5 26 2.5 26.0358V3.08014C2.5 2.5 2.85549 2.28962 3.08014 2.28962H35.8505C36.5182 2.28962 36.5 2.83227 36.5 3.5V15V25.9277Z" fill="#B064CA"/>
<path d="M19.4649 24.1185C19.3889 24.1185 19.3129 24.1091 19.2382 24.0904C11.1021 22.0561 10.5951 12.8587 10.6331 10.0881C10.6443 9.24471 11.2859 8.52653 12.1249 8.41752C15.3801 7.99708 17.6461 6.16332 18.4696 5.39469C19.0283 4.87334 19.9016 4.87396 20.4603 5.39469C21.2837 6.16332 23.5498 7.99708 26.8049 8.41814C27.644 8.52715 28.2849 9.24471 28.2974 10.0881C28.336 12.8587 27.8296 22.0561 19.6923 24.0904C19.6169 24.1091 19.5409 24.1185 19.4649 24.1185ZM12.5005 10.2525C12.4862 12.8007 13.0007 20.431 19.4649 22.2181C25.9304 20.4304 26.4443 12.8001 26.4293 10.2531C23.0297 9.7754 20.5817 7.99023 19.4649 7.01355C18.3481 7.99023 15.9002 9.77478 12.5005 10.2525Z" fill="#4E4D69"/>
<path d="M23.5874 11.5407L23.5836 11.537C23.1781 11.1383 22.5235 11.1383 22.1236 11.5394L18.2717 15.3913L16.8148 13.9382C16.6429 13.7588 16.3782 13.6541 16.0885 13.6523C15.8064 13.6305 15.531 13.7488 15.3398 13.9332C15.1461 14.1344 15.0439 14.3829 15.0439 14.652C15.0439 14.9323 15.1498 15.1858 15.3498 15.3857L17.5398 17.5795C17.7286 17.7726 17.9846 17.8797 18.2661 17.881C18.5414 17.881 18.8093 17.7707 19.0011 17.5789L23.5899 12.9989C23.9841 12.5971 23.9829 11.9431 23.5874 11.5407Z" fill="#B064CA"/>
</svg>
