<svg width="31" height="30" viewBox="0 0 31 30" fill="none" xmlns="http://www.w3.org/2000/svg">
<path d="M16.7196 0.23296C16.5982 0.313882 16.4826 0.469947 16.4132 0.631791C16.315 0.874558 16.3092 0.932361 16.3728 1.15201C16.5057 1.58552 16.7196 1.7358 17.4479 1.88609C21.153 2.65485 24.2511 4.71259 26.4418 7.87435C27.4996 9.39454 28.2106 11.1112 28.6614 13.2326C28.7655 13.7239 28.9042 13.9493 29.1874 14.0649C29.6151 14.2441 30.0776 14.1054 30.3088 13.7297C30.4533 13.4927 30.4533 13.3193 30.3088 12.6083C29.4591 8.45815 26.9852 4.83398 23.3726 2.45833C21.8177 1.42946 20.0085 0.666472 18.1299 0.244519C17.3092 0.0595541 16.9797 0.0595541 16.7196 0.23296Z" fill="#4E4D69"/>
<path d="M5.80024 1.88667C4.96211 2.11787 4.60374 2.39532 2.95639 4.10625C1.61539 5.49927 1.36106 5.85187 1.09517 6.64375C1.01425 6.88074 0.921768 7.26801 0.881307 7.505C0.800384 8.02521 0.846626 9.35465 0.96801 10.0136C1.41886 12.4644 2.87547 15.6088 4.81761 18.3313C7.33198 21.8572 10.4128 24.7299 13.9156 26.8281C18.1178 29.3425 21.7998 30.2673 24.054 29.3656C24.7592 29.0824 25.1869 28.7356 26.6146 27.2905C28.3949 25.4813 28.603 25.1403 28.603 24.0016C28.5972 23.3369 28.4874 22.9496 28.1348 22.4121C28.0192 22.2387 27.0019 21.1693 25.8632 20.0364C24.0425 18.2214 23.7592 17.9613 23.4009 17.7764C22.7419 17.4411 22.1003 17.3602 21.4356 17.5278C20.7535 17.707 20.4703 17.9151 19.1929 19.1752L17.9848 20.3601L17.4588 20.0769C14.8578 18.6839 11.4821 15.2735 10.2741 12.7996L10.1238 12.4933L11.2163 11.4008C11.8174 10.7939 12.4185 10.1408 12.5457 9.94423C12.8809 9.44135 13.037 8.93848 13.037 8.3778C13.037 7.8229 12.9619 7.5339 12.6902 7.0079C12.511 6.64953 12.2393 6.36052 10.3724 4.48774C8.07762 2.19301 7.90422 2.04851 7.12968 1.86932C6.64414 1.75372 6.26843 1.7595 5.80024 1.88667ZM7.01407 3.69008C7.1239 3.7421 8.10652 4.68427 9.1932 5.77672C11.0082 7.59748 11.17 7.78244 11.2509 8.04833C11.4301 8.66681 11.2452 8.93848 9.63249 10.4933C8.34929 11.7303 8.25681 11.869 8.30305 12.4413C8.32617 12.7418 8.39553 12.9441 8.68454 13.5337C9.45331 15.0886 10.5862 16.5741 12.355 18.337C13.8636 19.8457 15.3664 20.9728 16.9097 21.7705C17.638 22.1462 17.7305 22.1809 18.0542 22.1809C18.297 22.1809 18.4819 22.1404 18.6496 22.0595C18.7883 21.9843 19.4472 21.389 20.2218 20.626C21.3084 19.5509 21.5975 19.3023 21.7882 19.2445C22.4067 19.0653 22.4992 19.1347 24.7419 21.389C26.736 23.3889 26.8979 23.5854 26.8979 24.0305C26.8979 24.4351 26.7071 24.6952 25.4702 25.9553C24.1523 27.2963 23.9962 27.4466 23.5916 27.6489C22.5338 28.1865 20.7767 28.0304 18.6033 27.2038C14.9965 25.8281 11.118 23.0826 8.37241 19.967C6.54588 17.8862 5.228 15.9556 4.18179 13.8285C2.56334 10.5338 2.16451 8.07723 3.01419 6.66109C3.1876 6.37208 5.70775 3.82302 5.94474 3.70164C6.31467 3.49933 6.63836 3.49933 7.01407 3.69008Z" fill="#B064CA"/>
<path d="M16.7253 5.4776C16.471 5.54118 16.1646 5.87065 16.1126 6.14232C16.0143 6.67988 16.3496 7.09605 16.9912 7.21165C19.7599 7.72031 22.1991 9.89943 23.0719 12.645C23.1644 12.9456 23.2627 13.3097 23.2858 13.4485C23.3898 14.0669 23.6904 14.3906 24.1644 14.3964C24.7135 14.4022 25.0487 14.0727 25.0487 13.5294C25.0487 13.1479 24.7713 12.0786 24.4996 11.4023C23.3494 8.55843 20.8234 6.34463 17.8987 5.62789C17.1588 5.4487 16.9681 5.4198 16.7253 5.4776Z" fill="#4E4D69"/>
</svg>
