<svg width="19" height="16" viewBox="0 0 19 16" fill="none" xmlns="http://www.w3.org/2000/svg">
<path d="M10.7509 0.943224C10.1648 1.24533 9.90497 1.92807 10.1466 2.52623C10.2131 2.67729 10.9502 3.45671 12.4305 4.937L14.6177 7.13026H4.65825H1.68616L1.42635 7.28131C1.0457 7.50486 0.858398 7.8553 0.858398 8.33866C0.858398 8.82203 1.0457 9.17246 1.42635 9.39602L1.68616 9.54707H4.65825H14.6177L12.4305 11.7343C10.9502 13.2206 10.2131 14 10.1466 14.1511C9.94122 14.6526 10.1104 15.2568 10.5515 15.6133C10.7267 15.7462 10.8596 15.7945 11.1073 15.8187C11.8142 15.8731 11.5665 16.0725 15.2038 12.4895C17.0346 10.689 18.5934 9.106 18.6719 8.96703C18.8774 8.62264 18.8774 8.05469 18.6719 7.71029C18.4907 7.39611 11.9955 0.99156 11.778 0.906972C11.5363 0.816341 10.9563 0.834468 10.7509 0.943224Z" fill="#4E4D69"/>
</svg>
