<svg width="40" height="40" viewBox="0 0 40 40" fill="none" xmlns="http://www.w3.org/2000/svg">
<path d="M39.0218 19.6172C39.0218 30.2348 30.4145 38.8421 19.7969 38.8421C9.17931 38.8421 0.572032 30.2348 0.572032 19.6172C0.572032 8.99962 9.17931 0.392345 19.7969 0.392345C30.4145 0.392345 39.0218 8.99962 39.0218 19.6172Z" stroke="#4E4C68" stroke-width="0.784689"/>
<path d="M27.3024 15.8385C27.2069 15.7381 27.0529 15.7128 26.9266 15.7748C26.848 15.8132 26.7003 15.8637 26.525 15.9136C26.7462 15.6323 26.9241 15.3172 27.0026 15.0341C27.0366 14.912 26.9869 14.7834 26.8788 14.7106C26.7707 14.6385 26.6268 14.6385 26.5187 14.7106C26.3484 14.8242 25.5264 15.1657 25.0066 15.2764C23.832 14.2922 22.4651 14.19 21.0442 14.9836C19.8891 15.6287 19.6377 16.9405 19.6867 17.7401C17.0428 17.4966 15.3993 16.1607 14.4742 15.0551C14.4095 14.9776 14.3052 14.9367 14.2071 14.9427C14.1041 14.9499 14.0111 15.0046 13.9583 15.0894C13.5209 15.7958 13.3996 16.5768 13.6088 17.3481C13.7232 17.7689 13.9231 18.1399 14.155 18.4405C14.0437 18.3882 13.9363 18.3226 13.8351 18.2445C13.7421 18.1711 13.612 18.1573 13.502 18.206C13.3927 18.2559 13.3229 18.3617 13.3229 18.4778C13.3229 19.8022 14.1889 20.686 14.9977 21.1477C14.867 21.1327 14.7307 21.105 14.593 21.0647C14.4749 21.0305 14.3467 21.0647 14.265 21.1537C14.1833 21.2421 14.1638 21.3683 14.2147 21.4759C14.6691 22.4373 15.5301 23.0986 16.5953 23.3385C15.6652 23.8609 14.4202 24.117 13.2802 23.9914C13.1325 23.9715 12.9917 24.0611 12.9452 24.197C12.8987 24.3329 12.9596 24.482 13.0897 24.5517C14.8193 25.4806 16.3829 25.8124 17.7341 25.8124C19.7005 25.8124 21.2183 25.1102 22.1421 24.5228C24.6327 22.9417 26.185 20.1028 25.9688 17.5627C26.3679 17.2808 26.9649 16.7601 27.3351 16.2004C27.4117 16.0874 27.3979 15.9383 27.3024 15.8385Z" fill="#4E4C68"/>
</svg>
